<?xml version="1.0" standalone="no"?><!DOCTYPE svg PUBLIC "-//W3C//DTD SVG 1.1//EN" "http://www.w3.org/Graphics/SVG/1.1/DTD/svg11.dtd"><svg t="1686642327143" class="icon" viewBox="0 0 1024 1024" version="1.1" xmlns="http://www.w3.org/2000/svg" p-id="1981" xmlns:xlink="http://www.w3.org/1999/xlink" width="400" height="400"><path d="M584.512 853.312H435.2c-29.888 0-55.488 34.176-38.4 64 25.6 38.4 68.288 64 115.2 64 46.912 0 89.6-25.6 110.912-64 17.088-29.824-4.224-64-38.4-64z m345.6-140.8l-17.024-21.312c-68.288-89.6-102.4-196.288-102.4-307.2v-29.888c0-153.6-110.976-290.112-264.576-307.2a297.472 297.472 0 0 0-332.8 294.4V384c0 110.912-34.112 217.6-102.4 307.2l-17.024 21.312c-8.576 8.576-12.8 25.6-8.576 34.176 12.8 38.4 46.976 64 85.376 64h682.624c38.4 0 72.576-25.6 81.088-64 4.288-12.8 0-25.6-4.288-34.176z" fill="#d4237a" p-id="1982"></path></svg>