<?xml version="1.0" standalone="no"?><!DOCTYPE svg PUBLIC "-//W3C//DTD SVG 1.1//EN" "http://www.w3.org/Graphics/SVG/1.1/DTD/svg11.dtd"><svg t="1688097095040" class="icon" viewBox="0 0 1024 1024" version="1.1" xmlns="http://www.w3.org/2000/svg" p-id="1707" xmlns:xlink="http://www.w3.org/1999/xlink" width="400" height="400"><path d="M663.153778 113.777778c138.695111 0 251.164444 115.768889 251.164444 258.56a260.380444 260.380444 0 0 1-113.891555 216.576l204.856889 246.101333a81.92 81.92 0 0 1 11.605333 85.504 77.596444 77.596444 0 0 1-70.542222 46.592H822.613333c13.653333-24.291556 17.351111-53.134222 10.638223-79.985778h113.038222l-262.428445-315.335111 74.012445-49.834666c63.886222-42.837333 93.070222-123.562667 72.021333-198.997334-21.105778-75.434667-87.608889-127.829333-163.783111-129.137778a310.158222 310.158222 0 0 0-67.299556-71.509333c21.048889-5.688889 42.666667-8.533333 64.341334-8.533333z m-74.24 515.982222l170.951111 205.255111a81.92 81.92 0 0 1 11.548444 85.504A77.596444 77.596444 0 0 1 700.871111 967.111111H134.599111c-30.378667 0-57.912889-18.204444-70.599111-46.592a81.92 81.92 0 0 1 11.605333-85.504l170.894223-205.312c21.902222 15.473778 45.852444 28.046222 71.395555 37.205333l-183.296 220.16h566.215111l-183.296-220.16c25.543111-9.102222 49.493333-21.731556 71.395556-37.205333zM417.678222 113.777778c138.752 0 251.164444 115.768889 251.164445 258.56s-112.412444 258.616889-251.107556 258.616889c-138.752 0-251.164444-115.825778-251.164444-258.616889C166.570667 229.546667 278.983111 113.777778 417.735111 113.777778z m0 79.985778c-61.952 0-119.182222 34.076444-150.186666 89.315555a183.182222 183.182222 0 0 0 0 178.574222 172.600889 172.600889 0 0 0 150.186666 89.315556c95.857778 0 173.511111-79.985778 173.511111-178.631111 0-98.588444-77.653333-178.574222-173.511111-178.574222z" fill="#d2cfd0" p-id="1708"></path></svg>