<?xml version="1.0" standalone="no"?><!DOCTYPE svg PUBLIC "-//W3C//DTD SVG 1.1//EN" "http://www.w3.org/Graphics/SVG/1.1/DTD/svg11.dtd"><svg t="1688549377963" class="icon" viewBox="0 0 1024 1024" version="1.1" xmlns="http://www.w3.org/2000/svg" p-id="2356" xmlns:xlink="http://www.w3.org/1999/xlink" width="400" height="400"><path d="M896 256v512H128V256h768zM213.333333 341.333333v341.333334h597.333334V341.333333H213.333333z m554.666667 85.333334v85.333333h-256v-85.333333h256z m-85.333333 128v85.333333h-170.666667v-85.333333h170.666667z m-213.333334 64H256C256 558.933333 302.933333 512 362.666667 512s106.666667 46.933333 106.666666 106.666667z m-213.333333 0h213.333333v21.333333H256v-21.333333zM362.666667 512c-34.133333 0-64-29.866667-64-64S328.533333 384 362.666667 384s64 29.866667 64 64S396.8 512 362.666667 512z" fill="#d2cfd0" p-id="2357"></path></svg>