<svg xmlns="http://www.w3.org/2000/svg" xmlns:xlink="http://www.w3.org/1999/xlink" viewBox="0 0 400 300" width="406" height="306" class="illustration styles_illustrationTablet__1DWOa"><defs><linearGradient id="linear-gradient" x1="245.09" y1="260.51" x2="258.88" y2="238.24" gradientUnits="userSpaceOnUse"><stop offset="0" stop-color="#fff" stop-opacity="0"></stop><stop offset="0.99" stop-color="#754c24"></stop></linearGradient><linearGradient id="linear-gradient-2" x1="73.5" y1="187.76" x2="84.78" y2="169.55" xlink:href="#linear-gradient"></linearGradient><linearGradient id="linear-gradient-3" x1="163.38" y1="238.63" x2="186.17" y2="201.82" xlink:href="#linear-gradient"></linearGradient><linearGradient id="linear-gradient-4" x1="103.27" y1="201.89" x2="122.26" y2="171.21" xlink:href="#linear-gradient"></linearGradient></defs><title>PP</title><g style="isolation: isolate;"><g id="Layer_2" data-name="Layer 2"><path d="M194.28,287.7,14.56,181.48C8.84,178.27,3.93,173,9.51,169.53l180.37-104c2.71-1.68,6.82-2.78,9.57-1.18L388.11,173.89c5.72,3.32,6.75,12.6,1,15.93L218,287.53A23.9,23.9,0,0,1,194.28,287.7Z" fill="#55823d"></path><path d="M262.05,235.7l-27.71,14.45,11.84,8.19,27.26-15.9C271.13,240.94,264.39,237.16,262.05,235.7Z" opacity="0.63" fill="url(#linear-gradient)" style="mix-blend-mode: multiply;"></path><path d="M87.85,168l-22.44,11.7L75,186.36l21-13.82C94.11,171.33,89.75,169.2,87.85,168Z" opacity="0.63" fill="url(#linear-gradient-2)" style="mix-blend-mode: multiply;"></path><path d="M184.18,192.6l-49.34,23.66,42.68,24.93L220,215.6C211,209.76,193.3,198.3,184.18,192.6Z" opacity="0.63" fill="url(#linear-gradient-3)" style="mix-blend-mode: multiply;"></path><path d="M220.57,192.62s5.07,6,5.54,9.22.12,19.15-28,19-26.28-17.13-25.81-18.42,6.38-10.83,6.38-10.83" fill="#fa6c00"></path><ellipse cx="199.38" cy="195.29" rx="21.7" ry="12.44" fill="#f7dd02"></ellipse><path d="M227,160.89c7.91-5.6,20,3.7,28.43,4,5.73.22,10-2.15,12.14-7.58.88-2.26,2.1-5.72,2-8.2-.12-3.32-2.84-5.34-5.12-7.3-7.1-6.11-17.46-8.34-23.38-15.71-2.79-3.48,2.13-8.46,4.95-4.95,5.23,6.52,14.9,8.9,21.42,14.09,3.09,2.46,6.81,5.36,8.35,9.12s.43,8.4-.65,12.23c-2.14,7.62-6.83,13.72-15,15a29.36,29.36,0,0,1-11.94-.86c-2.67-.69-5.26-1.66-7.87-2.52-1.16-.38-2.33-.76-3.51-1.08q-.88-.26-1.78-.45-2.36-1-2.51,2.84c4.42.87,2.55,7.62-1.86,6.75C223.44,174.86,220.62,165.44,227,160.89Z" fill="#fa6c00"></path><path d="M138.2,59.47c4.58,1.25,9.12,4.87,13,7.46,4.24,2.84,8.31,5.89,12.31,9.05,3.53,2.8-1.45,7.72-4.95,4.95a148.75,148.75,0,0,0-18.49-12.76c-1.61-.92-3.76-3.09-5.55-1.21-1.06,1.11-.93,3.67-.89,5a33.47,33.47,0,0,0,2.29,10.16c4.85,13.26,15.5,23.27,25.47,32.79,3.26,3.12-1.69,8.06-4.95,4.95C143.15,107.17,128,92.25,126.66,72.75,126.19,65.92,129.91,57.2,138.2,59.47Z" fill="#fa6c00"></path><path d="M204.65,172.1s-.88,8.39,1.91,13.55a62.41,62.41,0,0,0,4.86,7.8s.74,8.39-12.37,8.39-10.9-8.1-10.9-8.1a25.9,25.9,0,0,0,4.71-21.65" fill="#fec617"></path><path d="M188.16,193.74a25.9,25.9,0,0,0,4.71-21.65h4c-.26,10,.28,21.75,6.69,29.35a23.16,23.16,0,0,1-4.46.4C185.95,201.84,188.16,193.74,188.16,193.74Z" fill="#ffa407"></path><path d="M246,89.36v35.72s-.61,48.82-46.72,48.82-44.67-49.21-44.67-49.21V89.36" fill="#fec617"></path><path d="M154.57,124.68V89.36H181c-.22,23,1.07,48.5,16,66.77a65.54,65.54,0,0,0,18.43,15.38,51.88,51.88,0,0,1-16.15,2.39C153.14,173.89,154.57,124.68,154.57,124.68Z" fill="#ffa407"></path><ellipse cx="200.26" cy="89.36" rx="45.69" ry="26.93" fill="#f7dd02"></ellipse><ellipse cx="199.24" cy="88.65" rx="38.11" ry="21.31" fill="#fa6c00"></ellipse><path d="M238,135.18s.46-5.77,0-6.16-1.31,1-1.38,1.84c0,0-.79-1.77-1.44-1.57s-3.67,2-3.61,3.41,3.74,5.51,3.74,5.51" fill="#eea7b7"></path><path d="M294.33,123.38s-3-2.49-2.69-3.34,2,1.17,2,1.17-.72-3.19.13-3.52,4-.75,4.34-.14-.54,5.83-.54,5.83" fill="#eea7b7"></path><path d="M265.16,200.67s2.13,12.05,2.51,16.56.5,16.39.5,16.39a4.1,4.1,0,0,0,4.88,1.88,106.46,106.46,0,0,0,1.25-18.39c-.38-8.38.06-20.27.06-20.27Z" fill="#eea7b7"></path><path d="M276,197.84s2.13,6.76,4.38,8S303.69,213,309.94,220c0,0,4.38-.91,4.13-3.71,0,0-5-4.55-10.51-8.55s-16.31-5.5-16.85-6.38S285.3,189,285.3,189" fill="#eea7b7"></path><path d="M282,153.6s13,13.88,4.41,46.28c0,0-10.93,4-21.27.8,0,0-9.08-28.64,1.12-43.44" fill="#5311a6"></path><path d="M273.29,128.88c0-.36.83-2.34-.61-3.15s-7.39-.85-7.39.48,1,2.91,0,3.51-5.21.36-6.78,1.82-11.27,15.27-13.93,14.18S238.39,134,238.39,134L234,137.12s.85,13.69,7.27,16.6,21.45-10.3,21.45-10.3,4,9.94,3.53,13.81,16.18,1.62,15.73-3.63c-.49-5.68,1.09-14.66,1.09-14.66s13.93,5.94,18.3,1.33S298,122.22,298,122.22l-4.12,1.09s3.15,10.18,1.45,10.9-10.52-5.94-15.5-6.18S273.29,128.88,273.29,128.88Z" fill="#1b3f57"></path><path d="M268.15,232.59s-1,3.72-3,3.12-4.06-2.06-4.82-1.3-1.39,1.77-.38,2.91,6.58,4.24,6.58,4.24l3.48-3.17s.19,5,.57,5.06,2.66.06,2.85-1,0-9.32,0-9.32Z" fill="#4501a4"></path><path d="M309.94,220s1.8,1.19.91,2.77-3.54,3.36-3.36,4.18,1.08,2.47,2.28,2,3.23-1.46,3.67-2.34.51-6,1-6.27,3.67,3.48,4.18,3.17,2.34-2.09,2-2.53-6.59-4.71-6.59-4.71l-2.45-2.15-3.72,4Z" fill="#4501a4"></path><path d="M262.62,119.86s-2.91-2.48-2.26-5.17a7.72,7.72,0,0,1,9-5.28c5.17.86,9.15,5.82,8.94,13.46s-12,4.45-12,4.45" fill="#5311a6"></path><path d="M262.19,114.69s-.86,12.17,1.83,12.92,4.52-2.58,4.52-2.58l.54-2.26s2.69-2.48.75-3.23a2.32,2.32,0,0,0-2.91,1s-.86-2.48-2.26-1.83S262.19,114.69,262.19,114.69Z" fill="#eea7b7"></path><path d="M96.94,106.68c.63.86.66,4.64,0,5.05s-1.41-.33-1.41-.33-.41,2.32-1.08,2.32-5.05-2.15-4.8-4.06,2.56-5.78,2.56-5.78" fill="#ffbb8f"></path><path d="M149.12,36s.18-4.77.78-4.9.93,1.59,1,1.39,1.06-4.89,2-5,0,4.24,0,4.24,3.44.66,3.64,2-4.23,4.83-4.23,4.83" fill="#ffbb8f"></path><path d="M133.3,162.47s.21,3.93,2.33,5.41,4.88,1.91,6,4.14a4,4,0,0,1-.53,4.24,12.76,12.76,0,0,1-7.85-1.49c-4.24-2.23-6.26-3.5-7.74-3.82s-.08-9.08-.08-9.08Z" fill="#341a0c"></path><path d="M127.71,65s3.94-2.36,5.77-5S149.12,36,149.12,36s3.52,0,4.51,1.55S141.8,68.1,137.85,71.06s0,35.21-2,38.17-17.14,5.93-21.09-.69l-3-18.18s-13.24,14.09-14.23,17.18c0,0-4.08-.14-5.35-3.66s19.16-31.55,22.68-34.93S127.71,65,127.71,65Z" fill="#1b3f57"></path><path d="M131.17,58.46s4.84-2.09,3.54-5.22-5.86-5.6-12-2.87-5.21,5.73-4.3,8.86S120.85,65,121.81,65s3.67-3.26,3.67-3.26" fill="#341a0c"></path><path d="M130.8,55.58c.75-.26.78,12.64-3.78,12.25s-5-5.21-5-5.21-3.13-1.82-2.09-3.13,3.13,0,3.13,0l.78-3.91S125.85,57.28,130.8,55.58Z" fill="#ffbb8f"></path><path d="M135.88,109.23s8.38,20.17,7.09,26.19-9.25,30.11-9.25,30.11-8.53-1.08-8.24-3.66,5.27-25.53,4.45-28.29c-1.08-3.64-4.06-13.86-4.45-11.71s-3.81,13.07-6.63,16.51-24,20.05-24,20.05-6.24-4.52-5.59-6.45,15.71-12.37,18.28-18.49c1.88-4.47,7.31-24.95,7.31-24.95" fill="#5311a6"></path><path d="M94.79,158.43a48.83,48.83,0,0,0-1.49,5.41c-.32,1.91,1,5.52,2,6.26s.85,2.23-.53,3.18-5.52.42-7-1.06-.32-4.27-1.49-6.7-4.25-7.07,3.07-12.44" fill="#341a0c"></path><polygon points="175.99 117.04 180.21 130.17 190.16 137.11 182.54 142.17 184.19 154.54 175.38 144.28 166.33 145.25 168.3 134.24 161.26 122.06 171.28 125.52 175.99 117.04" fill="#ffad4a"></polygon><polyline points="180.66 157.03 184.19 154.54 178.51 138.02 175.99 117.04 172.46 119.53 169.08 127.01 161.26 122.06 157.73 124.55" fill="#ffad4a"></polyline><polygon points="172.46 119.53 176.68 132.66 186.63 139.6 179.22 144.25 180.66 157.03 171.85 146.77 162.8 147.74 164.77 136.73 157.73 124.55 167.76 128.01 172.46 119.53" fill="#ffe14d"></polygon><path d="M214.58,122.74S216.8,135,204.67,135c0,0,9.66,2.93,9.92,9.43,0,0,2.46-9.14,9.82-9.14C224.41,135.26,214.58,135.09,214.58,122.74Z" fill="#fff"></path><path d="M161.28,97.22s1.36,7.51-6.09,7.51c0,0,5.93,1.8,6.09,5.8,0,0,1.51-5.62,6-5.62C167.32,104.92,161.28,104.81,161.28,97.22Z" fill="#fff"></path><path d="M250.1,48.24s2.69,14.81-12,14.81c0,0,11.69,3.54,12,11.43,0,0,3-11.07,11.9-11.07C262,63.41,250.1,63.2,250.1,48.24Z" fill="#fec617"></path><path d="M199.17,27.73S201.39,40,189.26,40c0,0,9.66,2.93,9.92,9.43,0,0,2.46-9.14,9.82-9.14C209,40.25,199.17,40.08,199.17,27.73Z" fill="#fec617"></path><path d="M127.45,168.64l-37.8,19.71,16.15,11.18,35.35-23.27C138,174.22,130.64,170.63,127.45,168.64Z" opacity="0.63" fill="url(#linear-gradient-4)" style="mix-blend-mode: multiply;"></path></g></g></svg>