<?xml version="1.0" standalone="no"?><!DOCTYPE svg PUBLIC "-//W3C//DTD SVG 1.1//EN" "http://www.w3.org/Graphics/SVG/1.1/DTD/svg11.dtd"><svg t="1686567870379" class="icon" viewBox="0 0 1024 1024" version="1.1" xmlns="http://www.w3.org/2000/svg" p-id="2204" xmlns:xlink="http://www.w3.org/1999/xlink" width="400" height="400"><path d="M512 938.666667c235.648 0 426.666667-191.018667 426.666667-426.666667S747.648 85.333333 512 85.333333 85.333333 276.352 85.333333 512s191.018667 426.666667 426.666667 426.666667z m512-426.666667c0 282.752-229.248 512-512 512S0 794.752 0 512 229.248 0 512 0s512 229.248 512 512z" fill="#1296db" p-id="2205"></path><path d="M406.528 720.298667a42.666667 42.666667 0 0 0 43.818667-2.133334l256-170.666666a42.666667 42.666667 0 0 0 0-70.997334l-256-170.666666A42.666667 42.666667 0 0 0 384 341.333333v341.333334a42.666667 42.666667 0 0 0 22.528 37.632zM469.333333 602.965333V421.077333L605.738667 512 469.333333 602.965333z" fill="#1296db" p-id="2206"></path></svg>