<?xml version="1.0" standalone="no"?><!DOCTYPE svg PUBLIC "-//W3C//DTD SVG 1.1//EN" "http://www.w3.org/Graphics/SVG/1.1/DTD/svg11.dtd"><svg t="1686642968732" class="icon" viewBox="0 0 1024 1024" version="1.1" xmlns="http://www.w3.org/2000/svg" p-id="3645" xmlns:xlink="http://www.w3.org/1999/xlink" width="400" height="400"><path d="M624.941176 360.929882c-12.408471 0-22.528 13.432471-22.528 30.117647v301.176471c0 16.624941 10.119529 30.117647 22.528 30.117647h45.296942c12.408471 0 22.528-13.492706 22.528-30.117647v-301.176471c0-16.685176-10.119529-30.117647-22.528-30.117647h-45.296942z m-271.058823 0c-12.408471 0-22.528 13.432471-22.528 30.117647v301.176471c0 16.624941 10.119529 30.117647 22.528 30.117647h45.296941c12.408471 0 22.528-13.492706 22.528-30.117647v-301.176471c0-16.685176-10.119529-30.117647-22.528-30.117647h-45.296941z" fill="#d4237a" p-id="3646"></path><path d="M250.036706 138.059294a141.673412 141.673412 0 0 0-141.552941 141.552941v524.047059a141.673412 141.673412 0 0 0 141.552941 141.552941h524.047059a141.673412 141.673412 0 0 0 141.552941-141.552941v-524.047059a141.673412 141.673412 0 0 0-141.552941-141.552941h-524.047059z m524.047059 885.458824h-524.047059a220.099765 220.099765 0 0 1-219.858824-219.858824v-524.047059a220.099765 220.099765 0 0 1 219.858824-219.858823h524.047059a220.099765 220.099765 0 0 1 219.858823 219.858823v524.047059a220.099765 220.099765 0 0 1-219.858823 219.858824z" fill="#d4237a" p-id="3647"></path></svg>