<?xml version="1.0" standalone="no"?><!DOCTYPE svg PUBLIC "-//W3C//DTD SVG 1.1//EN" "http://www.w3.org/Graphics/SVG/1.1/DTD/svg11.dtd"><svg t="1686134044651" class="icon" viewBox="0 0 1024 1024" version="1.1" xmlns="http://www.w3.org/2000/svg" p-id="4945" xmlns:xlink="http://www.w3.org/1999/xlink" width="400" height="400"><path d="M904.057 754.565c66.5 26.208 106.204 59.18 106.204 95.027 0 85.16-224.008 154.24-500.334 154.24-276.26 0-500.266-69.08-500.266-154.24 0-35.845 39.654-68.819 106.17-95.027-15.914 11.095-24.671 23.022-24.671 35.457 0 57.872 187.506 104.733 418.767 104.733 231.328 0 418.802-46.861 418.802-104.733 0-12.435-8.709-24.361-24.672-35.457zM264.32 53.526c50.225 0 90.942 40.717 90.942 90.926 0 50.227-40.717 90.96-90.94 90.96-50.229 0-90.945-40.733-90.945-90.96 0-50.21 40.717-90.926 90.943-90.926z m489.876 0c-50.194 0-90.911 40.717-90.911 90.926 0 50.227 40.717 90.96 90.911 90.96 50.258 0 90.975-40.733 90.975-90.96 0-50.21-40.717-90.926-90.975-90.926z m-89.848 523.027v239.71h64.098l25.603-168.031 25.668 168.031H849.5V550.784c27.663-14.444 46.681-43.396 46.681-76.662v-135.81c0-47.497-38.805-86.351-86.335-86.351H703.61a85.737 85.737 0 0 0-19.966 2.335c14.231 21.749 22.5 47.678 22.5 75.487v147.819c0 37.826-15.54 73.296-41.796 98.949zM511.463 19.883c54.64 0 98.95 44.313 98.95 98.95 0 54.654-44.31 98.965-98.95 98.965-54.669 0-98.965-44.312-98.965-98.965 0-54.638 44.295-98.95 98.965-98.95z m97.774 541.328c30.324-15.588 51.271-47.285 51.271-83.607v-147.82c0-51.664-42.286-93.95-93.95-93.95H450.912c-51.697 0-93.967 42.287-93.967 93.95v147.819c0 36.159 20.703 67.708 50.849 83.41v288.89h75.927l27.905-182.85 27.876 182.85h69.735V561.208z m-255.054 15.341c-26.24-25.652-41.762-61.124-41.762-98.95V329.784c0-27.806 8.233-53.737 22.481-75.484a85.623 85.623 0 0 0-19.966-2.338H208.703c-47.53 0-86.336 38.854-86.336 86.352v135.81c0 33.266 19.02 62.218 46.698 76.663v265.476h69.768l25.668-168.031 25.603 168.03h64.08V576.553z" fill="#ffffff" p-id="4946"></path></svg>